<svg xmlns="http://www.w3.org/2000/svg" xmlns:xlink="http://www.w3.org/1999/xlink" viewBox="0 0 113.79 72.11"><defs><style>.cls-1{fill:none;}.cls-2{clip-path:url(#clip-path);}.cls-3{fill:#e5e5e6;}.cls-4{fill:#3f3f69;}.cls-5{fill:#65afcd;}.cls-6{fill:#fff;}</style><clipPath id="clip-path" transform="translate(0 -16.82)"><path class="cls-1" d="M109.77,52.88A52.88,52.88,0,1,1,56.9,0C82,0,109.77,23,109.77,52.88Z"/></clipPath></defs><title>Asset 1</title><g id="Layer_2" data-name="Layer 2"><g id="OBJECTS"><g class="cls-2"><path class="cls-3" d="M93,52.88A36.06,36.06,0,1,1,56.9,16.82C74,16.82,93,32.48,93,52.88Z" transform="translate(0 -16.82)"/><path class="cls-4" d="M38.08,83.74A335.92,335.92,0,0,0,1,88.15L0,49.71a334.84,334.84,0,0,1,38.08-4.47Zm37.63,0a335.92,335.92,0,0,1,37.13,4.41l1-38.44a334.84,334.84,0,0,0-38.08-4.47Z" transform="translate(0 -16.82)"/><path class="cls-5" d="M58.06,31a336.64,336.64,0,0,0-46,3.26V72.71a336.64,336.64,0,0,1,46-3.26,282.29,282.29,0,0,1,43.69,3.26V34.25A282.29,282.29,0,0,0,58.06,31Z" transform="translate(0 -16.82)"/><polygon class="cls-6" points="68.31 29.39 61.75 29.39 61.75 22.83 52.04 22.83 52.04 29.39 45.48 29.39 45.48 39.11 52.04 39.11 52.04 45.67 61.75 45.67 61.75 39.11 68.31 39.11 68.31 29.39"/></g></g></g></svg>