<svg version="1.1" id="Icons" xmlns="http://www.w3.org/2000/svg" xmlns:xlink="http://www.w3.org/1999/xlink" x="0px" y="0px" viewBox="0 0 32 32" style="enable-background:new 0 0 32 32;" xml:space="preserve">
<style type="text/css">
	.st0{fill:none;stroke:#000000;stroke-width:2;stroke-linecap:round;stroke-linejoin:round;stroke-miterlimit:10;}
</style>
<path class="st0" d="M14,18c0,1.2,0,0.5,0,2c0,6.8-2,7.3-5,7.3c-2.8,0-6,5.8-6-3.8S8.2,6,11.3,6c0.8,0,1.5,0.3,1.9,1.9" id="id_101" style="stroke: rgb(255, 255, 255);"></path>
<path class="st0" d="M18,18c0,1.2,0,0.5,0,2c0,6.8,2,7.3,5,7.3c2.8,0,6,5.8,6-3.8S23.8,6,20.8,6c-0.8,0-1.5,0.3-1.9,1.9" id="id_102" style="stroke: rgb(255, 255, 255);"></path>
<path class="st0" d="M16,2v6.6c0,1.5-0.7,3-1.9,4L10,16" id="id_103" style="stroke: rgb(255, 255, 255);"></path>
<path class="st0" d="M16,8.6c0,1.5,0.7,3,1.9,4L22,16" id="id_104" style="stroke: rgb(255, 255, 255);"></path>
</svg>