<svg version="1.1" id="Icons" xmlns="http://www.w3.org/2000/svg" xmlns:xlink="http://www.w3.org/1999/xlink" x="0px" y="0px" viewBox="0 0 32 32" style="enable-background:new 0 0 32 32;" xml:space="preserve">
<style type="text/css">
	.st0{fill:none;stroke:#000000;stroke-width:2;stroke-linecap:round;stroke-linejoin:round;stroke-miterlimit:10;}
</style>
<path class="st0" d="M21,9H11V5c0-1.1,0.9-2,2-2h6c1.1,0,2,0.9,2,2V9z" id="id_101" style="stroke: rgb(255, 255, 255);"></path>
<path class="st0" d="M13,9v3l-3.2,2.4C9.3,14.8,9,15.4,9,16v11c0,1.1,0.9,2,2,2h10c1.1,0,2-0.9,2-2V16c0-0.6-0.3-1.2-0.8-1.6L19,12
	V9" id="id_102" style="stroke: rgb(255, 255, 255);"></path>
<line class="st0" x1="16" y1="18" x2="16" y2="24" id="id_103" style="stroke: rgb(255, 255, 255);"></line>
<line class="st0" x1="13" y1="21" x2="19" y2="21" id="id_104" style="stroke: rgb(255, 255, 255);"></line>
</svg>